<svg width="40" height="40" viewBox="0 0 40 40" fill="none" xmlns="http://www.w3.org/2000/svg">
<path d="M27.2127 3.82496C25.8451 2.97911 24.2662 2.53731 22.6582 2.55058C21.0502 2.56385 19.4787 3.03165 18.1252 3.89996C15.5002 5.64996 14.8877 9.01246 14.3752 11.9875C14.0252 13.875 13.6627 15.8125 12.8502 16.6375C12.4252 17.05 11.5002 16.925 10.1377 16.6375C8.55023 16.35 6.57523 16 4.96273 17.175C3.71273 18.1 2.93773 19.75 2.61273 22.25C2.31939 24.0201 2.41811 25.8331 2.90191 27.561C3.38571 29.2889 4.24281 30.8895 5.41273 32.25C8.25023 35.5625 13.1627 37.5 18.8252 37.5C30.5627 37.5 37.5752 29.2375 37.5752 21.25C37.5752 14.7875 32.8252 6.83746 27.2127 3.82496Z" fill="#F9A825"/>
<path d="M9.81251 27.9875H9.70001C9.38126 27.9495 9.07668 27.834 8.81298 27.6509C8.54929 27.4678 8.33452 27.2229 8.18751 26.9375C7.96042 26.5808 7.82751 26.1723 7.80122 25.7503C7.77493 25.3283 7.85612 24.9065 8.03719 24.5243C8.21826 24.1422 8.4933 23.8123 8.83657 23.5654C9.17985 23.3184 9.58014 23.1626 10 23.1125C10.3123 23.0473 10.6358 23.0587 10.9427 23.1458C11.2497 23.2329 11.531 23.393 11.7625 23.6125C12.0489 24.0036 12.2094 24.4725 12.2228 24.9571C12.2362 25.4416 12.1018 25.9187 11.8375 26.325C11.325 27.3875 10.6 27.9875 9.81251 27.9875Z" fill="#43A047"/>
<path d="M17.5003 32.2624C17.1112 32.261 16.7277 32.1687 16.3805 31.9929C16.0333 31.8171 15.7319 31.5627 15.5003 31.2499C15.2881 31.0098 15.1382 30.7211 15.0641 30.4094C14.99 30.0976 14.9938 29.7723 15.0753 29.4624C15.2754 29.0218 15.6052 28.6529 16.0208 28.4049C16.4363 28.1569 16.9176 28.0418 17.4003 28.0749C17.8757 27.9733 18.3709 28.0208 18.8183 28.2109C19.2657 28.4011 19.6436 28.7246 19.9003 29.1374C20.0275 29.4317 20.0781 29.7533 20.0475 30.0724C20.0169 30.3915 19.9061 30.6977 19.7253 30.9624C19.5125 31.3176 19.2174 31.6165 18.8651 31.834C18.5127 32.0515 18.1133 32.1813 17.7003 32.2124L17.5003 32.2624Z" fill="#039BE5"/>
<path d="M26.3127 29.6625C25.9186 29.6619 25.5297 29.5722 25.1752 29.4C24.8802 29.2765 24.6193 29.0836 24.4147 28.8377C24.2101 28.5918 24.068 28.3001 24.0002 27.9875C23.8752 27.1625 24.4127 26.3375 25.4877 25.7125C25.8698 25.4175 26.3324 25.2452 26.8144 25.2184C27.2965 25.1916 27.7753 25.3116 28.1877 25.5625C28.4273 25.7762 28.6116 26.0447 28.7248 26.3451C28.838 26.6455 28.8767 26.9689 28.8377 27.2875C28.8056 27.9286 28.5281 28.5329 28.0627 28.975C27.5973 29.4171 26.9797 29.6633 26.3377 29.6625H26.3127Z" fill="#3949AB"/>
<path d="M23.9879 13.5749C23.5562 13.6305 23.1178 13.5584 22.7267 13.3673C22.3357 13.1762 22.0093 12.8746 21.7879 12.4999C21.6677 12.2029 21.6231 11.8807 21.658 11.5622C21.6929 11.2437 21.8063 10.9389 21.9879 10.6749C22.188 10.2955 22.4824 9.97403 22.8428 9.74132C23.2031 9.50861 23.6173 9.37252 24.0454 9.34616C24.4735 9.31979 24.9013 9.40403 25.2874 9.59077C25.6736 9.77751 26.0052 10.0605 26.2504 10.4124C26.4596 10.6542 26.6065 10.9435 26.6784 11.255C26.7503 11.5665 26.7449 11.8909 26.6629 12.1999C26.459 12.6412 26.1239 13.0089 25.7033 13.2527C25.2827 13.4965 24.7972 13.6047 24.3129 13.5624L23.9879 13.5749Z" fill="#E53935"/>
<path d="M29.3001 21.425C29.1522 21.4235 29.0051 21.4025 28.8626 21.3625C28.0626 21.125 27.6126 20.2875 27.4376 19.0625C27.3329 18.5922 27.3737 18.1013 27.5545 17.6548C27.7354 17.2083 28.0477 16.8273 28.4501 16.5625C28.7426 16.4354 29.0616 16.3815 29.3796 16.4054C29.6976 16.4294 30.005 16.5305 30.2751 16.7C30.6509 16.8927 30.9717 17.1774 31.2076 17.5277C31.4436 17.8779 31.587 18.2822 31.6244 18.7028C31.6618 19.1234 31.5921 19.5467 31.4218 19.9331C31.2514 20.3195 30.9859 20.6564 30.6501 20.9125C30.2743 21.2366 29.7964 21.418 29.3001 21.425Z" fill="#8E24AA"/>
<path d="M18.75 25C18.4185 25 18.1005 24.8683 17.8661 24.6339C17.6317 24.3994 17.5 24.0815 17.5 23.75V21.25C17.5 19.2875 19 18.875 20.8875 18.75L20.55 18.525C20.4136 18.4332 20.2966 18.3154 20.2058 18.1783C20.115 18.0413 20.0521 17.8876 20.0208 17.7262C19.9894 17.5649 19.9902 17.3989 20.0231 17.2378C20.056 17.0767 20.1204 16.9237 20.2125 16.7875C20.3958 16.5135 20.6799 16.3229 21.003 16.2574C21.326 16.1918 21.6619 16.2566 21.9375 16.4375C25.0125 18.4875 24.6625 19.6125 24.5375 20.0375C24.4125 20.4625 23.9625 21.2875 22.5 21.2875C21.665 21.2553 20.8287 21.2929 20 21.4V23.75C20 23.9141 19.9677 24.0767 19.9048 24.2283C19.842 24.38 19.75 24.5178 19.6339 24.6339C19.5178 24.7499 19.38 24.842 19.2284 24.9048C19.0767 24.9676 18.9142 25 18.75 25Z" fill="#C62828"/>
<path d="M18.1129 3.8875C15.4879 5.6375 14.8629 9 14.3629 11.975C14.0129 13.8625 13.6629 15.8125 12.8379 16.625C12.4254 17.0375 11.5004 16.9125 10.1379 16.625C8.55039 16.3375 6.57539 15.9875 4.95039 17.1625C3.70039 18.0875 2.93789 19.7375 2.61289 22.2375C2.32046 24.0068 2.41843 25.8186 2.89995 27.546C3.38146 29.2734 4.23488 30.8746 5.40039 32.2375C8.23789 35.55 13.1379 37.5 18.7504 37.5C19.1379 37.5 19.5004 37.5 19.8754 37.5V3C19.2563 3.22843 18.665 3.52615 18.1129 3.8875Z" fill="#FBC02D"/>
<path d="M9.78787 27.9749H9.67537C9.3579 27.9329 9.05506 27.8157 8.792 27.633C8.52893 27.4504 8.31325 27.2077 8.16287 26.9249C7.9353 26.5665 7.80278 26.156 7.77778 25.7322C7.75278 25.3083 7.83613 24.8851 8.01998 24.5024C8.20382 24.1197 8.4821 23.7902 8.82859 23.5448C9.17507 23.2994 9.57834 23.1463 10.0004 23.0999C10.3127 23.0347 10.6362 23.0461 10.9431 23.1332C11.25 23.2203 11.5313 23.3804 11.7629 23.5999C12.0492 23.991 12.2098 24.46 12.2232 24.9445C12.2366 25.429 12.1022 25.9061 11.8379 26.3124C11.6853 26.7532 11.4124 27.1425 11.0501 27.4363C10.6879 27.7301 10.2506 27.9166 9.78787 27.9749Z" fill="#43A047"/>
<path d="M19.9253 29.3125V30.4375C20.0438 30.0719 20.0438 29.6781 19.9253 29.3125Z" fill="#039BE5"/>
<path d="M19.8751 29.1374C19.6145 28.7285 19.2361 28.4081 18.7899 28.2184C18.3436 28.0288 17.8504 27.9787 17.3751 28.0749C16.8847 28.0349 16.3939 28.1465 15.9691 28.3947C15.5443 28.6428 15.206 29.0156 15.0001 29.4624C14.9251 29.7764 14.9293 30.1041 15.0122 30.4161C15.0951 30.728 15.2541 31.0146 15.4751 31.2499C15.7151 31.5588 16.022 31.8093 16.3727 31.9825C16.7235 32.1557 17.1089 32.2471 17.5001 32.2499H17.6626C18.0777 32.2207 18.4796 32.0919 18.8343 31.8743C19.189 31.6567 19.486 31.3567 19.7001 30.9999C19.7959 30.8346 19.8715 30.6583 19.9251 30.4749V29.3499C19.9194 29.2769 19.9026 29.2053 19.8751 29.1374Z" fill="#039BE5"/>
<path d="M17.4253 21.2499V23.7499C17.4253 24.0814 17.557 24.3994 17.7914 24.6338C18.0258 24.8682 18.3438 24.9999 18.6753 24.9999C19.0068 24.9999 19.3248 24.8682 19.5592 24.6338C19.7936 24.3994 19.9253 24.0814 19.9253 23.7499V18.8624C18.4753 19.0624 17.4253 19.6124 17.4253 21.2499Z" fill="#F4511E"/>
</svg>
