<svg width="24" height="25" viewBox="0 0 24 25" fill="none" xmlns="http://www.w3.org/2000/svg">
<path d="M20.3812 11.004L18.75 9.35706V5.32088C18.75 4.69573 18.2438 4.18424 17.625 4.18424H16.5C15.8812 4.18424 15.375 4.69573 15.375 5.32088V5.94943L13.125 3.67844C12.8179 3.38519 12.5366 3.04761 12 3.04761C11.4634 3.04761 11.1821 3.38519 10.875 3.67844L3.61875 11.004C3.26775 11.3735 3 11.6428 3 12.1407C3 12.7806 3.486 13.2773 4.125 13.2773H5.25V20.0971C5.25 20.7223 5.75625 21.2338 6.375 21.2338H8.625C9.24632 21.2338 9.75 20.7249 9.75 20.0971V15.5506C9.75 14.9254 10.2562 14.4139 10.875 14.4139H13.125C13.7438 14.4139 14.25 14.9254 14.25 15.5506V20.0971C14.25 20.7249 14.1912 21.2338 14.8125 21.2338H17.625C18.2438 21.2338 18.75 20.7223 18.75 20.0971V13.2773H19.875C20.514 13.2773 21 12.7806 21 12.1407C21 11.6428 20.7322 11.3735 20.3812 11.004Z" stroke="white" stroke-width="2" stroke-linejoin="round"/>
</svg>
