<svg width="19" height="20" viewBox="0 0 19 20" fill="none" xmlns="http://www.w3.org/2000/svg">
<g clip-path="url(#clip0_2108_879)">
<path d="M0.132324 15.8966V13.717C0.132324 13.272 0.243592 12.8596 0.466129 12.48C0.688665 12.1004 0.996289 11.8124 1.389 11.616C1.57227 11.5244 1.74899 11.4393 1.91916 11.3608C2.10243 11.2822 2.29224 11.2102 2.48859 11.1448V15.8966H0.132324ZM3.27401 10.3986C2.61949 10.3986 2.06315 10.1696 1.60499 9.71139C1.14683 9.25323 0.917747 8.69689 0.917747 8.04237C0.917747 7.38785 1.14683 6.83151 1.60499 6.37335C2.06315 5.91518 2.61949 5.6861 3.27401 5.6861C3.92853 5.6861 4.48487 5.91518 4.94304 6.37335C5.4012 6.83151 5.63028 7.38785 5.63028 8.04237C5.63028 8.69689 5.4012 9.25323 4.94304 9.71139C4.48487 10.1696 3.92853 10.3986 3.27401 10.3986ZM3.27401 8.82779C3.49655 8.82779 3.67982 8.75579 3.82381 8.6118C3.98089 8.45472 4.05944 8.2649 4.05944 8.04237C4.05944 7.81983 3.98089 7.63657 3.82381 7.49257C3.67982 7.33549 3.49655 7.25694 3.27401 7.25694C3.05148 7.25694 2.86167 7.33549 2.70458 7.49257C2.56059 7.63657 2.48859 7.81983 2.48859 8.04237C2.48859 8.2649 2.56059 8.45472 2.70458 8.6118C2.86167 8.75579 3.05148 8.82779 3.27401 8.82779ZM3.27401 15.8966V13.6974C3.27401 13.2523 3.38528 12.8465 3.60782 12.48C3.84345 12.1004 4.15107 11.8124 4.53069 11.616C5.34229 11.2102 6.16699 10.9092 7.00477 10.7128C7.84255 10.5034 8.69343 10.3986 9.55739 10.3986C10.4214 10.3986 11.2722 10.5034 12.11 10.7128C12.9478 10.9092 13.7725 11.2102 14.5841 11.616C14.9637 11.8124 15.2648 12.1004 15.4873 12.48C15.723 12.8465 15.8408 13.2523 15.8408 13.6974V15.8966H3.27401ZM4.84486 14.3257H14.2699V13.6974C14.2699 13.5534 14.2307 13.4225 14.1521 13.3047C14.0867 13.1869 13.995 13.0953 13.8772 13.0298C13.1703 12.6764 12.4569 12.4146 11.7369 12.2444C11.017 12.0611 10.2905 11.9695 9.55739 11.9695C8.82433 11.9695 8.09782 12.0611 7.37785 12.2444C6.65788 12.4146 5.94445 12.6764 5.23757 13.0298C5.11976 13.0953 5.02158 13.1869 4.94304 13.3047C4.87758 13.4225 4.84486 13.5534 4.84486 13.6974V14.3257ZM9.55739 9.61321C8.69343 9.61321 7.95382 9.30559 7.33857 8.69034C6.72333 8.07509 6.4157 7.33549 6.4157 6.47152C6.4157 5.60756 6.72333 4.86795 7.33857 4.25271C7.95382 3.63746 8.69343 3.32983 9.55739 3.32983C10.4214 3.32983 11.161 3.63746 11.7762 4.25271C12.3915 4.86795 12.6991 5.60756 12.6991 6.47152C12.6991 7.33549 12.3915 8.07509 11.7762 8.69034C11.161 9.30559 10.4214 9.61321 9.55739 9.61321ZM9.55739 8.04237C9.98937 8.04237 10.3559 7.89183 10.657 7.59075C10.9712 7.27658 11.1282 6.90351 11.1282 6.47152C11.1282 6.03954 10.9712 5.67301 10.657 5.37193C10.3559 5.05776 9.98937 4.90068 9.55739 4.90068C9.12541 4.90068 8.75233 5.05776 8.43817 5.37193C8.13709 5.67301 7.98655 6.03954 7.98655 6.47152C7.98655 6.90351 8.13709 7.27658 8.43817 7.59075C8.75233 7.89183 9.12541 8.04237 9.55739 8.04237ZM15.8408 10.3986C15.1863 10.3986 14.6299 10.1696 14.1717 9.71139C13.7136 9.25323 13.4845 8.69689 13.4845 8.04237C13.4845 7.38785 13.7136 6.83151 14.1717 6.37335C14.6299 5.91518 15.1863 5.6861 15.8408 5.6861C16.4953 5.6861 17.0516 5.91518 17.5098 6.37335C17.968 6.83151 18.197 7.38785 18.197 8.04237C18.197 8.69689 17.968 9.25323 17.5098 9.71139C17.0516 10.1696 16.4953 10.3986 15.8408 10.3986ZM15.8408 8.82779C16.0633 8.82779 16.2466 8.75579 16.3906 8.6118C16.5477 8.45472 16.6262 8.2649 16.6262 8.04237C16.6262 7.81983 16.5477 7.63657 16.3906 7.49257C16.2466 7.33549 16.0633 7.25694 15.8408 7.25694C15.6182 7.25694 15.4284 7.33549 15.2713 7.49257C15.1273 7.63657 15.0553 7.81983 15.0553 8.04237C15.0553 8.2649 15.1273 8.45472 15.2713 8.6118C15.4284 8.75579 15.6182 8.82779 15.8408 8.82779ZM16.6262 15.8966V11.1448C16.8226 11.2102 17.0058 11.2822 17.176 11.3608C17.3593 11.4393 17.5425 11.5244 17.7258 11.616C18.1185 11.8124 18.4261 12.1004 18.6487 12.48C18.8712 12.8596 18.9825 13.272 18.9825 13.717V15.8966H16.6262Z" fill="black"/>
</g>
<defs>
<clipPath id="clip0_2108_879">
<rect width="18.8501" height="18.8501" fill="white" transform="translate(0.132324 0.188232)"/>
</clipPath>
</defs>
</svg>
