<svg width="16" height="17" viewBox="0 0 16 17" fill="none" xmlns="http://www.w3.org/2000/svg">
<path d="M15.4062 11.5488C15.5729 11.6322 15.7135 11.7572 15.8281 11.9238C15.9427 12.0905 16 12.2676 16 12.4551C16 12.5384 15.9896 12.6113 15.9688 12.6738L15.25 15.8301C15.2083 16.0384 15.0938 16.2155 14.9062 16.3613C14.7188 16.5072 14.5208 16.5801 14.3125 16.5801H14.2812C12.3646 16.5801 10.5208 16.2051 8.75 15.4551C6.97917 14.7051 5.45833 13.6895 4.1875 12.4082C2.91667 11.127 1.90104 9.60612 1.14062 7.8457C0.380208 6.08529 0 4.23633 0 2.29883V2.26758C0 2.05924 0.0729167 1.86133 0.21875 1.67383C0.364583 1.48633 0.541667 1.37174 0.75 1.33008L3.90625 0.611328C3.96875 0.590495 4.04167 0.580078 4.125 0.580078C4.25 0.580078 4.36979 0.60612 4.48438 0.658203C4.59896 0.710286 4.70833 0.783203 4.8125 0.876953C4.91667 0.970703 4.98958 1.06966 5.03125 1.17383L6.46875 4.54883C6.53125 4.67383 6.5625 4.80924 6.5625 4.95508C6.5625 5.24674 6.4375 5.49674 6.1875 5.70508L4.5 7.08008C4.95833 7.99674 5.67708 8.94466 6.65625 9.92383C7.63542 10.903 8.58333 11.6217 9.5 12.0801L10.875 10.3926C11.0833 10.1426 11.3333 10.0176 11.625 10.0176C11.7708 10.0176 11.9062 10.0488 12.0312 10.1113L15.4062 11.5488ZM14.2812 15.5801L15 12.4551L11.625 11.0176L9.78125 13.2988C8.15625 12.5488 6.85417 11.6842 5.875 10.7051C4.89583 9.72591 4.03125 8.42383 3.28125 6.79883L5.5625 4.95508L4.125 1.58008L1 2.29883C1 3.73633 1.22396 5.13216 1.67188 6.48633C2.11979 7.84049 2.75521 9.05924 3.57812 10.1426C4.40104 11.2259 5.35417 12.179 6.4375 13.002C7.52083 13.8249 8.73958 14.4603 10.0938 14.9082C11.4479 15.3561 12.8438 15.5801 14.2812 15.5801Z" fill="#0AA6D7"/>
</svg>
