<svg width="30" height="30" viewBox="0 0 30 30" fill="none" xmlns="http://www.w3.org/2000/svg">
<path d="M20.1749 3.70005L8.8874 7.45005C1.2999 9.98755 1.2999 14.1251 8.8874 16.6501L12.2374 17.7626L13.3499 21.1126C15.8749 28.7001 20.0249 28.7001 22.5499 21.1126L26.3124 9.83755C27.9874 4.77505 25.2374 2.01255 20.1749 3.70005V3.70005ZM20.5749 10.4251L15.8249 15.2001C15.6374 15.3876 15.3999 15.4751 15.1624 15.4751C14.9249 15.4751 14.6874 15.3876 14.4999 15.2001C14.3256 15.0236 14.2278 14.7856 14.2278 14.5376C14.2278 14.2895 14.3256 14.0515 14.4999 13.8751L19.2499 9.10005C19.6124 8.73755 20.2124 8.73755 20.5749 9.10005C20.9374 9.46255 20.9374 10.0626 20.5749 10.4251Z" fill="#2AB6DA"/>
</svg>
