<svg width="12" height="17" viewBox="0 0 12 17" fill="none" xmlns="http://www.w3.org/2000/svg">
<path d="M3.875 4.85498C3.875 4.85498 4.02083 4.70915 4.3125 4.41748C4.60417 4.12581 5.16667 3.97998 6 3.97998C6.83333 3.97998 7.54167 4.27165 8.125 4.85498C8.70833 5.43831 9 6.14665 9 6.97998C9 7.81331 8.70833 8.52165 8.125 9.10498C7.54167 9.68831 6.83333 9.97998 6 9.97998C5.16667 9.97998 4.45833 9.68831 3.875 9.10498C3.29167 8.52165 3 7.81331 3 6.97998C3 6.14665 3.29167 5.43831 3.875 4.85498ZM4.59375 8.38623C4.59375 8.38623 4.69271 8.48519 4.89062 8.68311C5.08854 8.88102 5.45833 8.97998 6 8.97998C6.54167 8.97998 7.01042 8.78206 7.40625 8.38623C7.80208 7.9904 8 7.52165 8 6.97998C8 6.43831 7.80208 5.96956 7.40625 5.57373C7.01042 5.1779 6.54167 4.97998 6 4.97998C5.45833 4.97998 4.98958 5.1779 4.59375 5.57373C4.19792 5.96956 4 6.43831 4 6.97998C4 7.52165 4.19792 7.9904 4.59375 8.38623ZM1.75 2.72998C1.75 2.72998 2.04167 2.43831 2.625 1.85498C3.20833 1.27165 4.33333 0.97998 6 0.97998C7.66667 0.97998 9.08333 1.56331 10.25 2.72998C11.4167 3.89665 12 5.31331 12 6.97998C12 7.33415 11.9844 7.64144 11.9531 7.90186C11.9219 8.16227 11.8385 8.46956 11.7031 8.82373C11.5677 9.1779 11.4427 9.46956 11.3281 9.69873C11.2135 9.9279 10.9792 10.3185 10.625 10.8706C10.2708 11.4227 9.95833 11.8862 9.6875 12.2612C9.41667 12.6362 8.96354 13.2821 8.32812 14.1987C7.69271 15.1154 7.125 15.9383 6.625 16.6675C6.47917 16.8758 6.27083 16.98 6 16.98C5.72917 16.98 5.52083 16.8758 5.375 16.6675C4.875 15.9383 4.30729 15.1154 3.67188 14.1987C3.03646 13.2821 2.58333 12.6362 2.3125 12.2612C2.04167 11.8862 1.72917 11.4227 1.375 10.8706C1.02083 10.3185 0.786458 9.9279 0.671875 9.69873C0.557292 9.46956 0.432292 9.1779 0.296875 8.82373C0.161458 8.46956 0.078125 8.16227 0.046875 7.90186C0.015625 7.64144 0 7.33415 0 6.97998C0 5.31331 0.583333 3.89665 1.75 2.72998ZM6 15.7925C6.4375 15.1466 6.92188 14.4487 7.45312 13.6987C7.98438 12.9487 8.375 12.3914 8.625 12.0269C8.875 11.6623 9.16146 11.2508 9.48438 10.7925C9.80729 10.3341 10.0312 9.9904 10.1562 9.76123C10.2812 9.53206 10.4167 9.28206 10.5625 9.01123C10.7083 8.7404 10.8021 8.50602 10.8438 8.30811C10.8854 8.11019 10.9219 7.90706 10.9531 7.69873C10.9844 7.4904 11 7.25081 11 6.97998C11 5.60498 10.5104 4.4279 9.53125 3.44873C8.55208 2.46956 7.375 1.97998 6 1.97998C4.625 1.97998 3.44792 2.46956 2.46875 3.44873C1.48958 4.4279 1 5.60498 1 6.97998C1 7.25081 1.01562 7.4904 1.04688 7.69873C1.07812 7.90706 1.11458 8.11019 1.15625 8.30811C1.19792 8.50602 1.29167 8.7404 1.4375 9.01123C1.58333 9.28206 1.71875 9.53206 1.84375 9.76123C1.96875 9.9904 2.19271 10.3341 2.51562 10.7925C2.83854 11.2508 3.125 11.6623 3.375 12.0269C3.625 12.3914 4.01562 12.9487 4.54688 13.6987C5.07812 14.4487 5.5625 15.1466 6 15.7925Z" fill="#0AA6D7"/>
</svg>
