<svg width="16" height="17" viewBox="0 0 16 17" fill="none" xmlns="http://www.w3.org/2000/svg">
<path d="M14.5 2.78003C14.9167 2.78003 15.2708 2.92586 15.5625 3.21753C15.8542 3.5092 16 3.86336 16 4.28003V13.28C16 13.6967 15.8542 14.0509 15.5625 14.3425C15.2708 14.6342 14.9167 14.78 14.5 14.78H1.5C1.08333 14.78 0.729167 14.6342 0.4375 14.3425C0.145833 14.0509 0 13.6967 0 13.28V4.28003C0 3.86336 0.145833 3.5092 0.4375 3.21753C0.729167 2.92586 1.08333 2.78003 1.5 2.78003H14.5ZM1.5 3.78003C1.35417 3.78003 1.23438 3.8269 1.14062 3.92065C1.04688 4.0144 1 4.1342 1 4.28003V5.56128C1.72917 6.18628 3.30208 7.45711 5.71875 9.37378C5.71875 9.37378 5.86458 9.49357 6.15625 9.73315C6.44792 9.97274 6.66667 10.1446 6.8125 10.2488C6.95833 10.3529 7.15104 10.4675 7.39062 10.5925C7.63021 10.7175 7.83333 10.78 8 10.78C8.14583 10.78 8.30208 10.7488 8.46875 10.6863C8.63542 10.6238 8.80729 10.53 8.98438 10.405C9.16146 10.28 9.31771 10.1654 9.45312 10.0613C9.58854 9.95711 9.75 9.8269 9.9375 9.67065C10.125 9.5144 10.2396 9.41545 10.2812 9.37378C12.6979 7.45711 14.2708 6.18628 15 5.56128V4.28003C15 4.1342 14.9531 4.0144 14.8594 3.92065C14.7656 3.8269 14.6458 3.78003 14.5 3.78003H1.5ZM14.5 13.78C14.6458 13.78 14.7656 13.7332 14.8594 13.6394C14.9531 13.5457 15 13.4259 15 13.28V6.87378C14.2708 7.45711 12.9062 8.55086 10.9062 10.155C10.8646 10.1759 10.724 10.2904 10.4844 10.4988C10.2448 10.7071 10.0521 10.8634 9.90625 10.9675C9.76042 11.0717 9.57292 11.1967 9.34375 11.3425C9.11458 11.4884 8.88542 11.5977 8.65625 11.6707C8.42708 11.7436 8.20833 11.78 8 11.78C7.8125 11.78 7.61979 11.7488 7.42188 11.6863C7.22396 11.6238 7.04688 11.5509 6.89062 11.4675C6.73438 11.3842 6.55729 11.2748 6.35938 11.1394C6.16146 11.004 6 10.8894 5.875 10.7957C5.75 10.7019 5.60417 10.5821 5.4375 10.4363C5.27083 10.2904 5.15625 10.1967 5.09375 10.155C3.09375 8.55086 1.72917 7.45711 1 6.87378V13.28C1 13.4259 1.04688 13.5457 1.14062 13.6394C1.23438 13.7332 1.35417 13.78 1.5 13.78H14.5Z" fill="#0AA6D7"/>
</svg>
