<svg width="40" height="40" viewBox="0 0 40 40" fill="none" xmlns="http://www.w3.org/2000/svg">
<path d="M33.75 2.5H6.25C4.17893 2.5 2.5 4.17893 2.5 6.25V33.75C2.5 35.8211 4.17893 37.5 6.25 37.5H33.75C35.8211 37.5 37.5 35.8211 37.5 33.75V6.25C37.5 4.17893 35.8211 2.5 33.75 2.5Z" fill="#FF6F00"/>
<path d="M27.5 18.75H12.5C11.5054 18.75 10.5516 18.3549 9.84835 17.6517C9.14509 16.9484 8.75 15.9946 8.75 15V12.5C8.75 11.5054 9.14509 10.5516 9.84835 9.84835C10.5516 9.14509 11.5054 8.75 12.5 8.75H27.5C28.4946 8.75 29.4484 9.14509 30.1517 9.84835C30.8549 10.5516 31.25 11.5054 31.25 12.5V15C31.25 15.9946 30.8549 16.9484 30.1517 17.6517C29.4484 18.3549 28.4946 18.75 27.5 18.75ZM11.25 12.5V15C11.25 15.3315 11.3817 15.6495 11.6161 15.8839C11.8505 16.1183 12.1685 16.25 12.5 16.25H27.5C27.8315 16.25 28.1495 16.1183 28.3839 15.8839C28.6183 15.6495 28.75 15.3315 28.75 15V12.5C28.75 12.1685 28.6183 11.8505 28.3839 11.6161C28.1495 11.3817 27.8315 11.25 27.5 11.25H12.5C12.1685 11.25 11.8505 11.3817 11.6161 11.6161C11.3817 11.8505 11.25 12.1685 11.25 12.5Z" fill="#1A237E"/>
<path d="M17.5 31.0124C17.3355 31.0134 17.1724 30.9819 17.0201 30.9197C16.8678 30.8575 16.7293 30.7658 16.6125 30.6499L9.11251 23.1499C8.8797 22.9157 8.74902 22.5989 8.74902 22.2687C8.74902 21.9385 8.8797 21.6217 9.11251 21.3874C9.22872 21.2703 9.36697 21.1773 9.51929 21.1138C9.67162 21.0504 9.835 21.0177 10 21.0177C10.165 21.0177 10.3284 21.0504 10.4807 21.1138C10.6331 21.1773 10.7713 21.2703 10.8875 21.3874L18.3875 28.8874C18.6203 29.1217 18.751 29.4385 18.751 29.7687C18.751 30.0989 18.6203 30.4157 18.3875 30.6499C18.2707 30.7658 18.1322 30.8575 17.9799 30.9197C17.8276 30.9819 17.6645 31.0134 17.5 31.0124Z" fill="#1A237E"/>
<path d="M10.0002 31.0124C9.75448 31.0114 9.51451 30.938 9.31028 30.8014C9.10605 30.6647 8.94663 30.4709 8.85193 30.2442C8.75723 30.0174 8.73146 29.7678 8.77784 29.5265C8.82422 29.2852 8.94069 29.0629 9.1127 28.8874L16.6127 21.3874C16.7289 21.2703 16.8672 21.1773 17.0195 21.1138C17.1718 21.0504 17.3352 21.0177 17.5002 21.0177C17.6652 21.0177 17.8286 21.0504 17.9809 21.1138C18.1332 21.1773 18.2715 21.2703 18.3877 21.3874C18.6205 21.6217 18.7512 21.9385 18.7512 22.2687C18.7512 22.5989 18.6205 22.9157 18.3877 23.1499L10.8877 30.6499C10.7709 30.7658 10.6324 30.8575 10.4801 30.9197C10.3278 30.9819 10.1647 31.0134 10.0002 31.0124Z" fill="#1A237E"/>
<path d="M30 27.5H22.5C22.1685 27.5 21.8505 27.3683 21.6161 27.1339C21.3817 26.8995 21.25 26.5815 21.25 26.25C21.25 25.9185 21.3817 25.6005 21.6161 25.3661C21.8505 25.1317 22.1685 25 22.5 25H30C30.3315 25 30.6495 25.1317 30.8839 25.3661C31.1183 25.6005 31.25 25.9185 31.25 26.25C31.25 26.5815 31.1183 26.8995 30.8839 27.1339C30.6495 27.3683 30.3315 27.5 30 27.5Z" fill="#1A237E"/>
<path d="M26.2498 31.0125C25.9188 31.0079 25.6018 30.8784 25.3623 30.65C25.2466 30.5327 25.1571 30.3921 25.0998 30.2375C25.0337 30.0879 24.9995 29.9261 24.9995 29.7625C24.9995 29.5989 25.0337 29.4371 25.0998 29.2875C25.1631 29.136 25.2519 28.9965 25.3623 28.875C25.4785 28.7578 25.6168 28.6648 25.7691 28.6014C25.9214 28.5379 26.0848 28.5052 26.2498 28.5052C26.4148 28.5052 26.5782 28.5379 26.7305 28.6014C26.8828 28.6648 27.0211 28.7578 27.1373 28.875C27.2511 28.9939 27.3403 29.1341 27.3998 29.2875C27.4659 29.4371 27.5001 29.5989 27.5001 29.7625C27.5001 29.9261 27.4659 30.0879 27.3998 30.2375C27.3425 30.3921 27.2531 30.5327 27.1373 30.65C26.8978 30.8784 26.5808 31.0079 26.2498 31.0125Z" fill="#1A237E"/>
<path d="M26.25 23.5125C25.9191 23.5079 25.6021 23.3784 25.3625 23.15C25.2467 23.0332 25.155 22.8947 25.0928 22.7424C25.0306 22.5901 24.9991 22.427 25 22.2625C25.002 22.0992 25.036 21.9378 25.1 21.7875C25.2103 21.5196 25.4102 21.2984 25.6656 21.1616C25.921 21.0248 26.2159 20.9809 26.5 21.0375C26.5783 21.0512 26.6542 21.0765 26.725 21.1125C26.8047 21.1399 26.8803 21.1777 26.95 21.225L27.1375 21.375C27.2513 21.4939 27.3405 21.6341 27.4 21.7875C27.4641 21.9378 27.498 22.0992 27.5 22.2625C27.501 22.427 27.4694 22.5901 27.4072 22.7424C27.345 22.8947 27.2534 23.0332 27.1375 23.15L26.95 23.3L26.725 23.4125C26.6542 23.4485 26.5783 23.4738 26.5 23.4875L26.25 23.5125Z" fill="#1A237E"/>
<path d="M6.25 2.5C5.25544 2.5 4.30161 2.89509 3.59835 3.59835C2.89509 4.30161 2.5 5.25544 2.5 6.25V33.75C2.5 34.7446 2.89509 35.6984 3.59835 36.4017C4.30161 37.1049 5.25544 37.5 6.25 37.5H19.8875V2.5H6.25Z" fill="#F9A825"/>
<path d="M12.5 16.25C12.1685 16.25 11.8505 16.1183 11.6161 15.8839C11.3817 15.6495 11.25 15.3315 11.25 15V12.5C11.25 12.1685 11.3817 11.8505 11.6161 11.6161C11.8505 11.3817 12.1685 11.25 12.5 11.25H19.8875V8.75H12.5C11.5054 8.75 10.5516 9.14509 9.84835 9.84835C9.14509 10.5516 8.75 11.5054 8.75 12.5V15C8.75 15.9946 9.14509 16.9484 9.84835 17.6517C10.5516 18.3549 11.5054 18.75 12.5 18.75H19.8875V16.25H12.5Z" fill="#303F9F"/>
<path d="M10.8877 21.6125C10.6524 21.3771 10.3331 21.2449 10.0002 21.2449C9.66735 21.2449 9.34811 21.3771 9.11273 21.6125C8.87735 21.8479 8.74512 22.1671 8.74512 22.5C8.74512 22.8329 8.87735 23.1521 9.11273 23.3875L16.6127 30.8875C16.7289 31.0046 16.8672 31.0976 17.0195 31.1611C17.1718 31.2246 17.3352 31.2572 17.5002 31.2572C17.6652 31.2572 17.8286 31.2246 17.981 31.1611C18.1333 31.0976 18.2715 31.0046 18.3877 30.8875C18.5049 30.7713 18.5979 30.633 18.6613 30.4807C18.7248 30.3284 18.7575 30.165 18.7575 30C18.7575 29.835 18.7248 29.6716 18.6613 29.5193C18.5979 29.3669 18.5049 29.2287 18.3877 29.1125L10.8877 21.6125Z" fill="#303F9F"/>
<path d="M16.6124 21.6125L9.11242 29.1125C8.99526 29.2287 8.90227 29.3669 8.83881 29.5193C8.77535 29.6716 8.74268 29.835 8.74268 30C8.74268 30.165 8.77535 30.3284 8.83881 30.4807C8.90227 30.633 8.99526 30.7713 9.11242 30.8875C9.22863 31.0046 9.36688 31.0976 9.5192 31.1611C9.67153 31.2246 9.83491 31.2572 9.99992 31.2572C10.1649 31.2572 10.3283 31.2246 10.4806 31.1611C10.633 31.0976 10.7712 31.0046 10.8874 30.8875L18.3874 23.3875C18.504 23.2709 18.5964 23.1326 18.6595 22.9803C18.7226 22.828 18.755 22.6648 18.755 22.5C18.755 22.3352 18.7226 22.172 18.6595 22.0197C18.5964 21.8674 18.504 21.729 18.3874 21.6125C18.2709 21.4959 18.1325 21.4035 17.9802 21.3404C17.828 21.2773 17.6647 21.2449 17.4999 21.2449C17.3351 21.2449 17.1719 21.2773 17.0196 21.3404C16.8673 21.4035 16.729 21.4959 16.6124 21.6125Z" fill="#303F9F"/>
</svg>
