<svg width="24" height="25" viewBox="0 0 24 25" fill="none" xmlns="http://www.w3.org/2000/svg">
<path d="M5.45009 14.3599L6.09262 14.7468L6.0943 14.744L5.45009 14.3599ZM4.30009 16.2699L3.65756 15.8831L3.65745 15.8833L4.30009 16.2699ZM5.38009 19.1999L5.13964 19.9104L5.14242 19.9113L5.38009 19.1999ZM18.6501 19.1999L18.4147 18.4878L18.4124 18.4886L18.6501 19.1999ZM19.7301 16.2699L20.3732 15.8841L20.3726 15.8831L19.7301 16.2699ZM18.5801 14.3599L17.9303 14.7348L17.9376 14.7468L18.5801 14.3599ZM13.8701 3.69994L13.661 4.4202C13.9354 4.49988 14.2313 4.41667 14.424 4.20562C14.6167 3.99457 14.6727 3.69236 14.5684 3.42629L13.8701 3.69994ZM12.9101 3.49994L12.8171 4.24415L12.8198 4.24449L12.9101 3.49994ZM10.1701 3.69994L9.4718 3.42629C9.36751 3.6924 9.42354 3.99466 9.61629 4.20571C9.80903 4.41676 10.105 4.49991 10.3794 4.42013L10.1701 3.69994ZM12.0201 2.65994C8.29587 2.65994 5.27009 5.68573 5.27009 9.40994H6.77009C6.77009 6.51416 9.1243 4.15994 12.0201 4.15994V2.65994ZM5.27009 9.40994V12.2999H6.77009V9.40994H5.27009ZM5.27009 12.2999C5.27009 12.5146 5.22151 12.8286 5.12866 13.1631C5.03588 13.4973 4.91559 13.7919 4.80588 13.9759L6.0943 14.744C6.29459 14.408 6.45929 13.9776 6.57401 13.5643C6.68866 13.1513 6.77009 12.6953 6.77009 12.2999H5.27009ZM4.80756 13.9731L3.65756 15.8831L4.94261 16.6568L6.09261 14.7468L4.80756 13.9731ZM3.65745 15.8833C3.19641 16.6495 3.10021 17.5091 3.38301 18.2729C3.66548 19.0357 4.29723 19.6252 5.13964 19.9104L5.62054 18.4895C5.16294 18.3347 4.8997 18.0492 4.78967 17.752C4.67997 17.4557 4.69376 17.0704 4.94273 16.6566L3.65745 15.8833ZM5.14242 19.9113C9.60668 21.4028 14.4235 21.4028 18.8878 19.9113L18.4124 18.4886C14.2567 19.8771 9.7735 19.8771 5.61775 18.4886L5.14242 19.9113ZM18.8855 19.912C20.5545 19.3603 21.279 17.3937 20.3732 15.8841L19.087 16.6558C19.5012 17.3462 19.1656 18.2396 18.4147 18.4878L18.8855 19.912ZM20.3726 15.8831L19.2226 13.9731L17.9376 14.7468L19.0876 16.6568L20.3726 15.8831ZM19.2297 13.9851C19.1218 13.7981 19.0028 13.5005 18.9109 13.1653C18.8187 12.8293 18.7701 12.5148 18.7701 12.2999H17.2701C17.2701 12.6951 17.3515 13.1506 17.4643 13.5621C17.5774 13.9743 17.7384 14.4018 17.9304 14.7347L19.2297 13.9851ZM18.7701 12.2999V9.40994H17.2701V12.2999H18.7701ZM18.7701 9.40994C18.7701 5.69573 15.7343 2.65994 12.0201 2.65994V4.15994C14.9059 4.15994 17.2701 6.52416 17.2701 9.40994H18.7701ZM14.0792 2.97968C13.7366 2.88022 13.3766 2.801 13.0003 2.75539L12.8198 4.24449C13.1036 4.27889 13.3836 4.33966 13.661 4.4202L14.0792 2.97968ZM13.0031 2.75573C11.9475 2.62378 10.9243 2.69965 9.96073 2.97975L10.3794 4.42013C11.1359 4.20023 11.9527 4.1361 12.8171 4.24415L13.0031 2.75573ZM10.8684 3.9736C11.0489 3.51288 11.4972 3.18994 12.0201 3.18994V1.68994C10.8629 1.68994 9.87124 2.40701 9.4718 3.42629L10.8684 3.9736ZM12.0201 3.18994C12.5429 3.18994 12.9912 3.51288 13.1718 3.9736L14.5684 3.42629C14.1689 2.40701 13.1772 1.68994 12.0201 1.68994V3.18994ZM14.2701 19.5599C14.2701 20.7957 13.2559 21.8099 12.0201 21.8099V23.3099C14.0843 23.3099 15.7701 21.6242 15.7701 19.5599H14.2701ZM12.0201 21.8099C11.4076 21.8099 10.8359 21.5551 10.4304 21.1496L9.36976 22.2103C10.0442 22.8847 10.9926 23.3099 12.0201 23.3099V21.8099ZM10.4304 21.1496C10.0249 20.7441 9.77009 20.1725 9.77009 19.5599H8.27009C8.27009 20.5874 8.69528 21.5358 9.36976 22.2103L10.4304 21.1496Z" fill="#292D32"/>
</svg>
