<svg width="40" height="40" viewBox="0 0 40 40" fill="none" xmlns="http://www.w3.org/2000/svg">
<path d="M33.75 7.5H6.25C4.17893 7.5 2.5 9.17893 2.5 11.25V28.75C2.5 30.8211 4.17893 32.5 6.25 32.5H33.75C35.8211 32.5 37.5 30.8211 37.5 28.75V11.25C37.5 9.17893 35.8211 7.5 33.75 7.5Z" fill="#D81B60"/>
<path d="M2.5 11.25V28.75C2.5 29.7446 2.89509 30.6984 3.59835 31.4017C4.30161 32.1049 5.25544 32.5 6.25 32.5H20V7.5H6.25C5.25544 7.5 4.30161 7.89509 3.59835 8.59835C2.89509 9.30161 2.5 10.2554 2.5 11.25Z" fill="#F06292"/>
<path d="M30.2 11.25C30.0356 11.2216 29.8672 11.2263 29.7046 11.2639C29.5421 11.3016 29.3887 11.3714 29.2536 11.4693C29.1184 11.5671 29.0043 11.691 28.9178 11.8337C28.8313 11.9764 28.7742 12.1349 28.75 12.3L28 16.8375C27.4607 16.3227 26.7982 15.9552 26.0761 15.7701C25.3539 15.5851 24.5963 15.5887 23.8759 15.7808C23.1556 15.9728 22.4966 16.3467 21.9624 16.8666C21.4281 17.3866 21.0365 18.0351 20.825 18.75H19.175C18.9646 18.0328 18.5729 17.3819 18.0377 16.86C17.5025 16.3382 16.8418 15.9631 16.1195 15.7709C15.3972 15.5787 14.6375 15.5759 13.9137 15.7627C13.19 15.9495 12.5266 16.3197 11.9875 16.8375L11.25 12.3C11.2257 12.1349 11.1687 11.9764 11.0822 11.8337C10.9957 11.691 10.8815 11.5671 10.7464 11.4693C10.6113 11.3714 10.4579 11.3016 10.2954 11.2639C10.1328 11.2263 9.96439 11.2216 9.79999 11.25C9.63366 11.2742 9.47391 11.3316 9.33028 11.4189C9.18666 11.5062 9.06211 11.6215 8.96409 11.7581C8.86607 11.8946 8.79659 12.0495 8.7598 12.2135C8.72301 12.3775 8.71968 12.5472 8.74999 12.7125L9.99999 20.2125C10.0378 20.4255 10.1303 20.6249 10.2683 20.7915C10.4064 20.958 10.5853 21.0858 10.7875 21.1625C11.0346 22.0783 11.5742 22.8882 12.3242 23.4688C13.0742 24.0495 13.9934 24.3691 14.9418 24.3791C15.8903 24.389 16.816 24.0886 17.5779 23.5237C18.3399 22.9588 18.8963 22.1604 19.1625 21.25H20.8125C21.0787 22.1604 21.6351 22.9588 22.3971 23.5237C23.159 24.0886 24.0847 24.389 25.0331 24.3791C25.9816 24.3691 26.9008 24.0495 27.6508 23.4688C28.4008 22.8882 28.9404 22.0783 29.1875 21.1625C29.3897 21.0858 29.5686 20.958 29.7066 20.7915C29.8447 20.6249 29.9371 20.4255 29.975 20.2125L31.225 12.7125C31.2555 12.549 31.2531 12.3811 31.2178 12.2185C31.1826 12.056 31.1153 11.9021 31.0198 11.7659C30.9244 11.6297 30.8027 11.5139 30.6619 11.4253C30.5211 11.3367 30.3641 11.2771 30.2 11.25ZM15 21.875C14.6292 21.875 14.2666 21.7651 13.9583 21.559C13.65 21.353 13.4096 21.0602 13.2677 20.7175C13.1258 20.3749 13.0887 19.9979 13.161 19.6342C13.2334 19.2705 13.4119 18.9364 13.6742 18.6742C13.9364 18.412 14.2705 18.2334 14.6342 18.161C14.9979 18.0887 15.3749 18.1258 15.7175 18.2677C16.0601 18.4097 16.353 18.65 16.559 18.9583C16.765 19.2667 16.875 19.6292 16.875 20C16.875 20.4973 16.6774 20.9742 16.3258 21.3258C15.9742 21.6775 15.4973 21.875 15 21.875ZM25 21.875C24.6292 21.875 24.2666 21.7651 23.9583 21.559C23.65 21.353 23.4096 21.0602 23.2677 20.7175C23.1258 20.3749 23.0887 19.9979 23.161 19.6342C23.2334 19.2705 23.4119 18.9364 23.6742 18.6742C23.9364 18.412 24.2705 18.2334 24.6342 18.161C24.9979 18.0887 25.3749 18.1258 25.7175 18.2677C26.0601 18.4097 26.353 18.65 26.559 18.9583C26.765 19.2667 26.875 19.6292 26.875 20C26.875 20.4973 26.6774 20.9742 26.3258 21.3258C25.9742 21.6775 25.4973 21.875 25 21.875Z" fill="#F9A825"/>
<path d="M21.25 7.5V13.75C21.25 14.0815 21.1183 14.3995 20.8839 14.6339C20.6495 14.8683 20.3315 15 20 15C19.6685 15 19.3505 14.8683 19.1161 14.6339C18.8817 14.3995 18.75 14.0815 18.75 13.75V7.5H21.25Z" fill="#E0E0E0"/>
<path d="M21.25 26.25V32.5H18.75V26.25C18.75 25.9185 18.8817 25.6005 19.1161 25.3661C19.3505 25.1317 19.6685 25 20 25C20.3315 25 20.6495 25.1317 20.8839 25.3661C21.1183 25.6005 21.25 25.9185 21.25 26.25Z" fill="#E0E0E0"/>
<path d="M19.1748 18.75C18.9644 18.0328 18.5726 17.3819 18.0375 16.8601C17.5023 16.3382 16.8416 15.9632 16.1193 15.7709C15.3969 15.5787 14.6373 15.5759 13.9135 15.7627C13.1898 15.9496 12.5264 16.3197 11.9873 16.8375L11.2498 12.3C11.2235 12.1359 11.1652 11.9785 11.0781 11.8369C10.991 11.6953 10.8769 11.5722 10.7422 11.4747C10.6076 11.3772 10.4551 11.3072 10.2934 11.2686C10.1317 11.2301 9.96394 11.2238 9.79979 11.25C9.63563 11.2763 9.47826 11.3346 9.33666 11.4217C9.19505 11.5088 9.07198 11.6229 8.97448 11.7576C8.87698 11.8922 8.80695 12.0447 8.7684 12.2065C8.72985 12.3682 8.72352 12.5359 8.74979 12.7L9.99979 20.2C10.0356 20.4152 10.1272 20.6173 10.2653 20.7862C10.4035 20.955 10.5834 21.0848 10.7873 21.1625C11.0344 22.0783 11.574 22.8882 12.324 23.4688C13.074 24.0495 13.9932 24.3692 14.9416 24.3791C15.8901 24.389 16.8158 24.0886 17.5777 23.5237C18.3397 22.9589 18.8961 22.1604 19.1623 21.25H19.9998V18.75H19.1748ZM14.9998 21.875C14.6289 21.875 14.2664 21.7651 13.9581 21.559C13.6497 21.353 13.4094 21.0602 13.2675 20.7176C13.1256 20.3749 13.0885 19.9979 13.1608 19.6342C13.2332 19.2705 13.4117 18.9364 13.674 18.6742C13.9362 18.412 14.2703 18.2334 14.634 18.1611C14.9977 18.0887 15.3747 18.1258 15.7173 18.2678C16.0599 18.4097 16.3528 18.65 16.5588 18.9583C16.7648 19.2667 16.8748 19.6292 16.8748 20C16.8748 20.4973 16.6772 20.9742 16.3256 21.3259C15.974 21.6775 15.4971 21.875 14.9998 21.875Z" fill="#FBC02D"/>
<path d="M18.75 7.5V13.75C18.75 14.0815 18.8817 14.3995 19.1161 14.6339C19.3505 14.8683 19.6685 15 20 15V7.5H18.75Z" fill="#F5F5F5"/>
<path d="M18.75 26.25V32.5H20V25C19.6685 25 19.3505 25.1317 19.1161 25.3661C18.8817 25.6005 18.75 25.9185 18.75 26.25Z" fill="#F5F5F5"/>
</svg>
