<svg width="40" height="40" viewBox="0 0 40 40" fill="none" xmlns="http://www.w3.org/2000/svg">
<path d="M37.5 20C37.5019 18.8417 37.3889 17.686 37.1625 16.55C36.5881 13.7366 35.3351 11.1062 33.5125 8.8875C32.937 8.19958 32.3146 7.5522 31.65 6.95C29.3887 4.92745 26.6405 3.5275 23.675 2.8875C22.7508 2.67538 21.8096 2.5457 20.8625 2.5H20C17.2051 2.49915 14.4506 3.16772 11.9672 4.44977C9.48366 5.73182 7.34336 7.59006 5.72536 9.86897C4.10735 12.1479 3.05871 14.7812 2.66719 17.5485C2.27567 20.3158 2.55265 23.1367 3.47497 25.775C3.79599 26.6699 4.18461 27.5391 4.63747 28.375C5.84244 30.5837 7.50949 32.5065 9.52497 34.0125C10.2041 34.527 10.923 34.9868 11.675 35.3875C13.1313 36.1792 14.6927 36.76 16.3125 37.1125C17.1892 37.2998 18.0796 37.4169 18.975 37.4625C19.3125 37.4625 19.65 37.4625 20 37.4625C24.1183 37.4652 28.1043 36.0081 31.25 33.35C33.2001 31.7134 34.7697 29.6709 35.8491 27.3652C36.9286 25.0594 37.492 22.5459 37.5 20Z" fill="#FF6F00"/>
<path d="M37.4999 31.25C37.5082 32.6036 37.0688 33.9221 36.2499 35C35.7875 35.6264 35.2001 36.1499 34.5249 36.5375L34.2999 36.675C33.3755 37.2181 32.3221 37.503 31.2499 37.5C30.0173 37.4973 28.813 37.1302 27.7885 36.4448C26.764 35.7594 25.965 34.7864 25.492 33.6481C25.0191 32.5098 24.8933 31.2571 25.1305 30.0475C25.3676 28.8379 25.9572 27.7254 26.8249 26.85C26.8683 26.79 26.9186 26.7355 26.9749 26.6875C28.1392 25.6109 29.6642 25.009 31.2499 25C32.9075 25 34.4973 25.6585 35.6694 26.8306C36.8415 28.0027 37.4999 29.5924 37.4999 31.25Z" fill="#689F38"/>
<path d="M36.25 35C35.7876 35.6264 35.2002 36.1499 34.525 36.5375L34.3 36.675C32.7234 35.439 31.282 34.0395 30 32.5C28.761 30.7328 27.7134 28.8388 26.875 26.85C26.9183 26.79 26.9687 26.7355 27.025 26.6875C27.5937 26.1498 28.2598 25.7255 28.9875 25.4375C29.7446 27.3518 30.7131 29.1756 31.875 30.875C33.1561 32.4266 34.6258 33.8123 36.25 35Z" fill="#E0E0E0"/>
<path d="M31.6499 6.94995C27.621 8.78082 23.9379 11.2926 20.7624 14.375C20.1584 14.9688 19.5867 15.5947 19.0499 16.25C18.6124 16.7375 18.1999 17.25 17.7999 17.775C17.1749 18.6125 16.5499 19.4625 16.0249 20.275C15.4999 21.0875 15.0749 21.8125 14.6374 22.5875C12.6324 26.2539 10.9228 30.0743 9.5249 34.0125C10.204 34.527 10.923 34.9868 11.6749 35.3875L11.8249 35C13.1699 31.2075 14.8082 27.5255 16.7249 23.9875C17.1624 23.1875 17.6374 22.4 18.1249 21.625C18.6124 20.85 19.2124 19.9875 19.7999 19.2125C20.2524 18.6162 20.7364 18.0446 21.2499 17.5C21.8575 16.8092 22.5044 16.1539 23.1874 15.5375C26.2127 12.7298 29.713 10.4824 33.5249 8.89995C32.9458 8.2073 32.3193 7.55573 31.6499 6.94995Z" fill="#263238"/>
<path d="M37.1626 16.55C34.1125 17.8721 30.8244 18.5569 27.5001 18.5625C25.5339 18.5924 23.5769 18.2881 21.7126 17.6625C21.5541 17.6215 21.3994 17.5671 21.2501 17.5C20.4557 17.2097 19.7161 16.7871 19.0626 16.25C18.4272 15.7232 17.9296 15.0496 17.6126 14.2875C16.1626 10.775 18.4751 5.66252 20.8751 2.58752C21.8215 2.62501 22.7627 2.74632 23.6876 2.95002C23.6444 3.11906 23.5583 3.27407 23.4376 3.40002C20.9376 6.13752 18.9001 10.9 19.9126 13.4C20.1074 13.8308 20.4033 14.2081 20.7751 14.5C21.3035 14.9058 21.8946 15.2225 22.5251 15.4375L23.1876 15.65C27.6569 16.6533 32.3324 16.1524 36.4876 14.225C36.7653 14.9837 36.9908 15.7606 37.1626 16.55Z" fill="#263238"/>
<path d="M18.9748 37.5C18.0794 37.4543 17.1891 37.3373 16.3123 37.15C16.3487 37.0336 16.4036 36.9239 16.4748 36.825C17.9873 34.5875 18.4623 30 17.4998 26.25C17.3244 25.4631 17.0471 24.7025 16.6748 23.9875C16.4574 23.4754 16.0917 23.04 15.6248 22.7375C15.3004 22.5883 14.9434 22.5238 14.5873 22.55C11.9123 22.55 6.4498 25.3125 4.7748 28.1C4.72657 28.1894 4.66312 28.2698 4.5873 28.3375C4.13445 27.5015 3.74583 26.6324 3.4248 25.7375C6.2373 22.4875 12.5623 19.425 15.9248 20.2375C16.2172 20.2958 16.4994 20.3969 16.7623 20.5375C17.2405 20.8069 17.6644 21.163 18.0123 21.5875C18.9781 22.7757 19.658 24.1699 19.9998 25.6625C20.8373 29.2 20.7373 34.2125 18.9748 37.5Z" fill="#263238"/>
<path d="M2.5 20C2.50136 21.9658 2.83088 23.9177 3.475 25.775C3.79602 26.6699 4.18464 27.5391 4.6375 28.375C5.84247 30.5837 7.50952 32.5065 9.525 34.0125C10.2041 34.527 10.9231 34.9868 11.675 35.3875C13.1313 36.1792 14.6928 36.76 16.3125 37.1125C17.1893 37.2998 18.0796 37.4169 18.975 37.4625C19.3125 37.4625 19.65 37.4625 20 37.4625V2.5C15.3587 2.5 10.9075 4.34374 7.62563 7.62563C4.34374 10.9075 2.5 15.3587 2.5 20Z" fill="#FFA000"/>
<path d="M28.9373 25.45C28.2096 25.738 27.5435 26.1623 26.9748 26.7C26.9185 26.748 26.8682 26.8025 26.8248 26.8625C25.9613 27.7385 25.3755 28.8499 25.1407 30.0574C24.906 31.2649 25.0328 32.5148 25.5052 33.6505C25.9777 34.7863 26.7748 35.7574 27.7967 36.4421C28.8185 37.1269 30.0197 37.4949 31.2498 37.5V25C30.4574 25.0021 29.6727 25.1548 28.9373 25.45Z" fill="#7CB342"/>
<path d="M19.0499 16.25C18.6124 16.7375 18.1999 17.25 17.7999 17.775C17.1749 18.6125 16.5499 19.4625 16.0249 20.275C15.4999 21.0875 15.0749 21.8125 14.6374 22.5875C12.6324 26.2539 10.9228 30.0743 9.5249 34.0125C10.204 34.527 10.923 34.9868 11.6749 35.3875L11.8249 35C13.1699 31.2075 14.8082 27.5255 16.7249 23.9875C17.1624 23.1875 17.6374 22.4 18.1249 21.625C18.6124 20.85 19.2124 19.9875 19.7999 19.2125C19.8624 19.125 19.9374 19.05 19.9999 18.975V15.1375C19.6749 15.475 19.3499 15.825 19.0499 16.25Z" fill="#455A64"/>
<path d="M19.8997 13.275C19.5279 12.0469 19.5629 10.7315 19.9997 9.525V3.75C17.9497 6.8375 16.3247 11.1625 17.5997 14.25C17.9114 15.0257 18.4094 15.7126 19.0497 16.25C19.3439 16.5088 19.662 16.739 19.9997 16.9375V13.4375C19.9593 13.3881 19.9256 13.3334 19.8997 13.275Z" fill="#455A64"/>
<path d="M20.0001 25.6625C19.6864 24.1928 19.0455 22.8128 18.1251 21.625C17.7772 21.2005 17.3533 20.8444 16.8751 20.575C16.6122 20.4344 16.33 20.3333 16.0376 20.275C12.6251 19.4625 6.3001 22.525 3.5376 25.775C3.85862 26.6698 4.24724 27.539 4.7001 28.375C4.77592 28.3073 4.83936 28.2269 4.8876 28.1375C6.5626 25.35 12.0251 22.6375 14.7001 22.5875C15.0562 22.5613 15.4132 22.6258 15.7376 22.775C16.2045 23.0775 16.5702 23.5128 16.7876 24.025C17.1181 24.7336 17.3575 25.4812 17.5001 26.25C18.4126 30 17.9376 34.5875 16.4251 36.7875C16.3539 36.8864 16.299 36.9961 16.2626 37.1125C17.1394 37.2998 18.0297 37.4168 18.9251 37.4625C19.3937 36.5972 19.7548 35.6779 20.0001 34.725V25.725C19.9942 25.7045 19.9942 25.6829 20.0001 25.6625Z" fill="#455A64"/>
<path d="M28.9377 25.45C28.21 25.7379 27.5439 26.1622 26.9752 26.7C26.9189 26.7479 26.8685 26.8025 26.8252 26.8625C27.6802 28.8491 28.7446 30.7389 30.0002 32.5C30.3377 32.9125 30.8002 33.4125 31.2502 33.95V30C30.3671 28.543 29.5941 27.0221 28.9377 25.45Z" fill="#ECEFF1"/>
</svg>
