<svg width="21" height="17" viewBox="0 0 21 17" fill="none" xmlns="http://www.w3.org/2000/svg">
<path d="M18.8335 0.166687H2.16683C1.021 0.166687 0.0834961 1.10419 0.0834961 2.25002V14.75C0.0834961 15.8959 1.021 16.8334 2.16683 16.8334H18.8335C19.9793 16.8334 20.9168 15.8959 20.9168 14.75V2.25002C20.9168 1.10419 19.9793 0.166687 18.8335 0.166687ZM18.8335 14.75H2.16683V2.25002H18.8335V14.75ZM4.25016 6.41669H6.3335V8.50002H4.25016V6.41669ZM4.25016 10.5834H12.5835V12.6667H4.25016V10.5834ZM14.6668 10.5834H16.7502V12.6667H14.6668V10.5834ZM8.41683 6.41669H16.7502V8.50002H8.41683V6.41669Z" fill="white"/>
</svg>
