<svg width="21" height="21" viewBox="0 0 21 21" fill="none" xmlns="http://www.w3.org/2000/svg">
<path d="M10.5002 0.0833435C4.75016 0.0833435 0.0834961 4.75001 0.0834961 10.5C0.0834961 16.25 4.75016 20.9167 10.5002 20.9167C16.2502 20.9167 20.9168 16.25 20.9168 10.5C20.9168 4.75001 16.2502 0.0833435 10.5002 0.0833435ZM10.5002 18.8333C5.90641 18.8333 2.16683 15.0938 2.16683 10.5C2.16683 5.90626 5.90641 2.16668 10.5002 2.16668C15.0939 2.16668 18.8335 5.90626 18.8335 10.5C18.8335 15.0938 15.0939 18.8333 10.5002 18.8333ZM10.5002 5.81251C7.90641 5.81251 5.81266 7.90626 5.81266 10.5C5.81266 13.0938 7.90641 15.1875 10.5002 15.1875C13.0939 15.1875 15.1877 13.0938 15.1877 10.5C15.1877 7.90626 13.0939 5.81251 10.5002 5.81251ZM10.5002 11.5417C9.92725 11.5417 9.4585 11.0729 9.4585 10.5C9.4585 9.92709 9.92725 9.45834 10.5002 9.45834C11.0731 9.45834 11.5418 9.92709 11.5418 10.5C11.5418 11.0729 11.0731 11.5417 10.5002 11.5417Z" fill="white"/>
</svg>
