<svg width="22" height="25" viewBox="0 0 22 25" fill="none" xmlns="http://www.w3.org/2000/svg">
<path d="M15.2188 14.1597C16.9375 14.1597 18.4141 14.7833 19.6484 16.0304C20.8828 17.2776 21.5 18.7694 21.5 20.5059V22.495C21.5 23.1265 21.2812 23.6632 20.8438 24.1053C20.4063 24.5473 19.875 24.7683 19.25 24.7683H2.75C2.125 24.7683 1.59375 24.5473 1.15625 24.1053C0.71875 23.6632 0.5 23.1265 0.5 22.495V20.5059C0.5 18.7694 1.11719 17.2776 2.35156 16.0304C3.58594 14.7833 5.0625 14.1597 6.78125 14.1597C7.1875 14.1597 7.78906 14.286 8.58594 14.5386C9.38281 14.7912 10.1875 14.9175 11 14.9175C11.8125 14.9175 12.625 14.7912 13.4375 14.5386C14.25 14.286 14.8438 14.1597 15.2188 14.1597ZM20 22.495V20.5059C20 19.1799 19.5312 18.0432 18.5938 17.096C17.6562 16.1488 16.5312 15.6752 15.2188 15.6752C15.0312 15.6752 14.5078 15.8015 13.6484 16.0541C12.7891 16.3067 11.9063 16.433 11 16.433C10.0937 16.433 9.21094 16.3067 8.35156 16.0541C7.49219 15.8015 6.96875 15.6752 6.78125 15.6752C5.46875 15.6752 4.34375 16.1488 3.40625 17.096C2.46875 18.0432 2 19.1799 2 20.5059V22.495C2 22.7161 2.07031 22.8976 2.21094 23.0397C2.35156 23.1818 2.53125 23.2528 2.75 23.2528H19.25C19.4687 23.2528 19.6484 23.1818 19.7891 23.0397C19.9297 22.8976 20 22.7161 20 22.495ZM15.2422 10.8682C15.2422 10.8682 14.9492 11.1642 14.3633 11.7562C13.7773 12.3482 12.6562 12.6442 11 12.6442C9.34375 12.6442 7.92969 12.0522 6.75781 10.8682C5.58594 9.68423 5 8.25555 5 6.58217C5 4.90879 5.58594 3.4801 6.75781 2.29611C7.92969 1.11212 9.34375 0.520121 11 0.520121C12.6562 0.520121 14.0703 1.11212 15.2422 2.29611C16.4141 3.4801 17 4.90879 17 6.58217C17 8.25555 16.4141 9.68423 15.2422 10.8682ZM14.1875 3.36171C14.1875 3.36171 13.9687 3.14069 13.5312 2.69867C13.0938 2.25664 12.25 2.03563 11 2.03563C9.75 2.03563 8.6875 2.47766 7.8125 3.36171C6.9375 4.24575 6.5 5.31924 6.5 6.58217C6.5 7.84509 6.9375 8.91858 7.8125 9.80263C8.6875 10.6867 9.75 11.1287 11 11.1287C12.25 11.1287 13.3125 10.6867 14.1875 9.80263C15.0625 8.91858 15.5 7.84509 15.5 6.58217C15.5 5.31924 15.0625 4.24575 14.1875 3.36171Z" fill="white"/>
</svg>
