<svg width="18" height="25" viewBox="0 0 18 25" fill="none" xmlns="http://www.w3.org/2000/svg">
<path d="M9 15.5C11.075 15.5 12.75 13.825 12.75 11.75V4.25C12.75 2.175 11.075 0.5 9 0.5C6.925 0.5 5.25 2.175 5.25 4.25V11.75C5.25 13.825 6.925 15.5 9 15.5ZM7.75 4.25C7.75 3.5625 8.3125 3 9 3C9.6875 3 10.25 3.5625 10.25 4.25V11.75C10.25 12.4375 9.6875 13 9 13C8.3125 13 7.75 12.4375 7.75 11.75V4.25ZM15.25 11.75C15.25 15.2 12.45 18 9 18C5.55 18 2.75 15.2 2.75 11.75H0.25C0.25 16.1625 3.5125 19.7875 7.75 20.4V24.25H10.25V20.4C14.4875 19.7875 17.75 16.1625 17.75 11.75H15.25V11.75Z" fill="white"/>
</svg>
